HIERARCHY
ROOT Hips
{
  OFFSET -17.1084 24.3355 -21.8382
  CHANNELS 6 Xposition Yposition Zposition Zrotation Xrotation Yrotation
  JOINT LeftHip
  {
    OFFSET 3.43 -1.42109e-014 3.55271e-015
    CHANNELS 3 Zrotation Xrotation Yrotation
    JOINT LeftKnee
    {
      OFFSET 2.94875e-013 -18.47 1.91847e-013
      CHANNELS 3 Zrotation Xrotation Yrotation
      JOINT LeftAnkle
      {
        OFFSET 4.16733e-012 -17.95 -5.98632e-012
        CHANNELS 3 Zrotation Xrotation Yrotation
        End Site
        {
          OFFSET 0 -3.12 0
        }
      }
    }
  }
  JOINT RightHip
  {
    OFFSET -3.43 -7.10543e-015 1.77636e-015
    CHANNELS 3 Zrotation Xrotation Yrotation
    JOINT RightKnee
    {
      OFFSET 1.35003e-013 -18.47 1.59872e-013
      CHANNELS 3 Zrotation Xrotation Yrotation
      JOINT RightAnkle
      {
        OFFSET 2.63611e-012 -17.95 -2.29505e-012
        CHANNELS 3 Zrotation Xrotation Yrotation
        End Site
        {
          OFFSET 0 -3.12 0
        }
      }
    }
  }
  JOINT Chest
  {
    OFFSET 7.10543e-015 4.57 1.06581e-014
    CHANNELS 3 Zrotation Xrotation Yrotation
    JOINT Chest2
    {
      OFFSET -2.13163e-014 6.57 2.4869e-014
      CHANNELS 3 Zrotation Xrotation Yrotation
      JOINT LeftCollar
      {
        OFFSET 1.06 4.19 1.76
        CHANNELS 3 Zrotation Xrotation Yrotation
        JOINT LeftShoulder
        {
          OFFSET 5.81 2.84217e-014 2.78e-013
          CHANNELS 3 Zrotation Xrotation Yrotation
          JOINT LeftElbow
          {
            OFFSET -3.10862e-014 -12.08 -8.98837e-013
            CHANNELS 3 Zrotation Xrotation Yrotation
            JOINT LeftWrist
            {
              OFFSET 3.50298e-012 -9.82 -1.58451e-012
              CHANNELS 3 Zrotation Xrotation Yrotation
              End Site
              {
                OFFSET 0 -7.37 0
              }
            }
          }
        }
      }
      JOINT RightCollar
      {
        OFFSET -1.06 4.19 1.76
        CHANNELS 3 Zrotation Xrotation Yrotation
        JOINT RightShoulder
        {
          OFFSET -6.06 1.7053e-013 9.50351e-014
          CHANNELS 3 Zrotation Xrotation Yrotation
          JOINT RightElbow
          {
            OFFSET 2.74269e-012 -11.08 -1.28964e-012
            CHANNELS 3 Zrotation Xrotation Yrotation
            JOINT RightWrist
            {
              OFFSET -1.86873e-012 -9.82 7.05569e-012
              CHANNELS 3 Zrotation Xrotation Yrotation
              End Site
              {
                OFFSET 0 -7.14001 0
              }
            }
          }
        }
      }
      JOINT Neck
      {
        OFFSET -4.61853e-014 4.05 9.59233e-014
        CHANNELS 3 Zrotation Xrotation Yrotation
        JOINT Head
        {
          OFFSET -1.59872e-013 5.19 3.21521e-013
          CHANNELS 3 Zrotation Xrotation Yrotation
          End Site
          {
            OFFSET 0 4.14001 0
          }
        }
      }
    }
  }
}
MOTION
Frames:	9
Frame Time:	0.0333333
-47.2106 37.893 -27.1023 -6.36487 -0.259545 -129.305 -3.44761 -19.0519 1.61073 9.01262 54.8393 8.50063 -1.47418 -16.216 -0.210029 2.46064 -7.99642 0.116895 -3.63483 38.2124 -4.95214 -1.07625 -25.6369 -0.244889 -2.67443 6.43291 1.79936 -1.01478 0.859673 1.70251 8.44793 0.128745 4.27554 5.89379 6.74472 -1.55741 3.27533 -11.7419 -37.9318 10.9512 -3.54384 0.339818 -9.94845 0.488889 -4.70227 -8.81778 -6.47261 20.2196 -3.71608 -14.9171 26.7978 -13.7556 -5.34143 -0.644746 -1.47839 -4.30094 -2.35881 2.8017 0.869368 -4.21454 
-48.0471 37.8079 -27.8242 -6.73496 -0.222574 -131.831 -3.88646 -21.8667 1.35166 6.91502 46.8391 8.18999 -0.671007 -14.3469 -0.0844531 1.61434 -6.01993 -0.209091 -3.31887 38.1178 -2.38487 -2.19 -27.3523 -0.532961 -2.90134 6.78086 2.69771 -1.04332 1.27771 2.70537 8.17488 0.122418 4.41513 6.05835 8.11225 -0.768158 3.24399 -11.135 -37.8318 10.556 -3.53068 0.326267 -10.3263 0.488422 -4.35856 -8.87782 -8.4989 20.7457 -3.92006 -15.8037 26.1529 -14.4502 -5.17897 -0.656999 -2.01193 -4.56534 -2.10058 2.64709 0.523766 -4.15812 
-48.9089 37.6893 -28.5698 -6.75443 -0.106971 -134.137 -3.29726 -22.7033 2.01563 4.27089 33.8112 7.00468 -2.46314 -5.63414 -0.121222 0.909959 -4.11846 -0.488391 -2.8682 37.8504 -0.165128 -3.25012 -28.9905 -0.840463 -2.95324 6.98981 3.47496 -0.979829 1.50264 3.56833 7.92765 0.117052 4.57811 6.16617 9.44061 0.183337 3.25464 -10.4959 -37.3784 10.3341 -3.46213 0.313165 -10.6493 0.484575 -4.03135 -8.83359 -9.93469 21.2977 -4.10241 -16.7744 25.964 -14.9316 -5.17679 -0.678846 -2.54326 -4.83991 -1.84082 2.51718 0.34501 -4.07851 
-49.8659 37.4878 -29.4026 -6.2837 0.275167 -136.167 -2.331 -24.8582 2.95131 2.10482 24.6931 6.12215 -1.91765 -1.82468 -0.0305409 0.577385 -2.15318 -0.713012 -2.26693 37.555 1.74259 -4.23679 -30.7666 -1.16617 -2.55144 6.95273 4.09745 -0.83291 1.44072 4.26677 7.66401 0.110411 4.74573 6.35366 10.8247 1.28014 3.2477 -9.68303 -36.7588 10.1867 -3.23596 0.288498 -10.9257 0.478889 -3.73341 -8.67277 -10.618 21.8173 -4.2334 -17.7106 26.2658 -15.1694 -5.32627 -0.709729 -3.05727 -5.07837 -1.5801 2.39103 0.353396 -3.96867 
-51.0229 37.1165 -30.4031 -5.35989 1.35341 -137.912 -0.750409 -27.9897 2.94419 0.806508 22.1629 4.92195 -2.63076 -7.52405 -0.173014 0.829992 0.296021 -0.917634 -1.61491 37.5583 3.65089 -5.1989 -33.0338 -1.54262 -1.34255 6.69181 4.67238 -0.622104 1.19924 4.72998 7.3526 0.101144 4.92282 6.80419 12.417 2.51344 3.1213 -8.35351 -36.402 10.1838 -2.95781 0.263613 -11.1878 0.476881 -3.53795 -8.4224 -10.386 22.2132 -4.29437 -18.5052 27.0653 -15.1671 -5.60449 -0.746749 -3.52883 -5.22064 -1.3436 2.25889 0.590579 -3.84157 
-52.234 36.8244 -31.4316 -5.13685 1.81037 -139.265 -0.375178 -29.5678 2.60826 0.0196155 21.245 4.34324 -5.65176 -10.6372 -0.526573 -0.278026 3.58265 -1.51993 -0.320822 36.3656 5.99838 -6.81813 -34.7673 -2.13681 -0.981106 6.55652 5.06009 -0.502593 1.0133 4.99854 6.97361 0.0873215 5.06626 7.33309 13.4629 3.56425 2.92689 -6.8567 -35.871 9.99358 -2.11145 0.18463 -11.3826 0.476993 -3.43185 -7.96405 -9.56299 22.5017 -4.28875 -18.9488 28.1294 -14.9549 -5.98519 -0.786269 -3.90158 -5.24817 -1.13719 2.1462 0.91657 -3.70303 
-53.4647 36.6424 -32.4729 -5.5488 1.67705 -140.165 -2.20303 -30.6799 1.27679 0.816073 25.1201 4.39644 -0.984414 -12.7751 -0.110206 -2.32142 8.168 -2.28355 1.21192 33.011 8.53687 -8.5962 -35.5294 -2.75874 -1.37604 6.54847 5.19529 -0.61186 0.884175 5.07868 6.60662 0.0722189 5.14718 7.92699 13.805 4.37258 2.61947 -5.05461 -35.2635 9.77611 -1.01966 0.0872036 -11.591 0.480898 -3.39091 -7.13406 -8.22456 22.5959 -4.21233 -18.6281 29.2249 -14.5245 -6.3951 -0.815782 -4.10492 -5.15736 -0.968147 2.08016 1.22595 -3.55181 
-54.7548 36.5567 -33.5621 -6.33378 1.41936 -140.605 -4.10007 -29.9625 -0.159669 1.52097 26.6676 6.09731 -0.533274 -3.1161 -0.0145051 -3.89729 14.8296 -3.11918 1.56698 26.1609 10.7793 -9.04286 -34.8821 -2.8463 -2.00382 6.58238 5.09962 -1.00912 0.793823 4.91396 6.40197 0.0631893 5.1611 8.50177 13.6089 4.87263 2.2364 -3.24404 -34.6897 9.56141 0.047504 -0.00397292 -11.59 0.483629 -3.43885 -6.27308 -6.50926 22.4957 -4.05855 -17.7871 30.2829 -13.8566 -6.78927 -0.825944 -4.08463 -4.94819 -0.843331 2.04862 1.52606 -3.36985 
-56.093 36.6222 -34.6961 -7.29386 1.15208 -140.597 -6.10953 -27.4651 -1.73812 1.80468 26.142 6.37015 -0.521478 5.95581 0.027128 -4.25658 24.4399 -4.39923 0.443154 13.3509 11.3814 -6.66861 -30.7368 -1.8348 -2.63362 6.57898 4.74386 -1.68406 0.693042 4.47869 6.46279 0.0649217 5.0822 8.89972 12.9464 4.96844 1.87357 -1.78208 -34.2518 9.34187 0.804543 -0.0657357 -11.3487 0.482512 -3.54962 -5.47403 -4.5392 22.1891 -3.81999 -16.4376 31.1495 -12.8492 -7.10363 -0.800903 -3.82226 -4.65227 -0.750581 1.99838 1.82395 -3.11921 
